<?xml version="1.0" encoding="utf-8"?>
<!-- Generator: Adobe Illustrator 15.0.0, SVG Export Plug-In . SVG Version: 6.00 Build 0)  -->
<!DOCTYPE svg PUBLIC "-//W3C//DTD SVG 1.1//EN" "http://www.w3.org/Graphics/SVG/1.1/DTD/svg11.dtd">
<svg version="1.1" id="Layer_1" xmlns="http://www.w3.org/2000/svg" xmlns:xlink="http://www.w3.org/1999/xlink" x="0px" y="0px"
	 width="30.029px" height="30.03px" viewBox="0 0 30.029 30.03" enable-background="new 0 0 30.029 30.03" xml:space="preserve">
<g>
	<path fill="#BCB9B9" d="M24.406,23.726c-0.422-0.994-5.61-2.521-6.04-2.546l-0.346,0.026c-0.708,0.145-1.486,0.815-3.125,2.265
		c-1.842-0.852-4.369-3.127-5.559-4.47c-1.288-1.448-2.895-3.893-3.472-5.718c1.865-1.653,2.645-2.372,2.692-3.169
		c0.026-0.43-0.866-5.763-1.799-6.304L6.476,3.633C5.877,3.248,4.977,2.666,3.974,2.872c-0.245,0.05-0.479,0.146-0.701,0.283
		C2.6,3.578,0.952,4.722,0.204,6.215c-0.465,0.931-0.675,9.422,5.688,16.598c6.288,7.096,14.041,7.403,15.207,7.165l0.033-0.005
		l0.104-0.031c1.569-0.564,2.904-2.061,3.404-2.682c0.923-1.141,0.263-2.503-0.092-3.231L24.406,23.726z"/>
	<path fill="#BCB9B9" d="M16.353,13.678c0.455,0.457,0.594,1.087,0.479,1.678l1.914-0.022c0.093-1.066-0.253-2.167-1.068-2.983
		s-1.915-1.162-2.984-1.068l-0.021,1.916C15.264,13.083,15.895,13.221,16.353,13.678z"/>
	<path fill="#BCB9B9" d="M22.502,15.289l1.878-0.021c0.072-2.49-0.821-4.999-2.72-6.897c-1.898-1.901-4.409-2.794-6.899-2.724
		L14.739,7.53c2.019-0.078,4.056,0.63,5.593,2.167C21.87,11.233,22.577,13.273,22.502,15.289z"/>
	<path fill="#BCB9B9" d="M25.642,4.388c-2.981-2.98-6.904-4.437-10.814-4.387l-0.021,1.884c3.433-0.057,6.893,1.214,9.509,3.831
		c2.615,2.617,3.886,6.072,3.83,9.507l1.883-0.02C30.077,11.294,28.623,7.37,25.642,4.388z"/>
</g>
</svg>
