<?xml version="1.0" encoding="utf-8"?>
<!-- Generator: Adobe Illustrator 15.0.0, SVG Export Plug-In . SVG Version: 6.00 Build 0)  -->
<!DOCTYPE svg PUBLIC "-//W3C//DTD SVG 1.1//EN" "http://www.w3.org/Graphics/SVG/1.1/DTD/svg11.dtd">
<svg version="1.1" id="Layer_1" xmlns="http://www.w3.org/2000/svg" xmlns:xlink="http://www.w3.org/1999/xlink" x="0px" y="0px"
	 width="248px" height="60.368px" viewBox="70.469 -0.003 248 60.368" enable-background="new 70.469 -0.003 248 60.368"
	 xml:space="preserve">
<g>
	<g>
		<g>
			<path fill="#D59634" d="M128.339,52.541h-1.129v-0.716h3.073v0.716h-1.129v3.241h-0.815V52.541z"/>
			<path fill="#D59634" d="M130.884,51.784h0.064l1.95,2.143l1.92-2.143h0.069v3.998h-0.786v-1.483c0-0.269,0.031-0.693,0.031-0.693
				s-0.239,0.349-0.426,0.559l-0.785,0.879h-0.076l-0.787-0.879c-0.186-0.21-0.424-0.559-0.424-0.559s0.028,0.425,0.028,0.693v1.483
				h-0.78V51.784L130.884,51.784z"/>
		</g>
		<circle fill="#D59634" cx="100.653" cy="30.181" r="30.184"/>
		<g>
			<path fill="#FFFFFF" d="M112.672,43.839l-10.656-1.103l-7.833,10.198l1.066-10.898l-7.985-0.827V15.943l25.408-5.738
				L112.672,43.839L112.672,43.839z M91.799,19.377c0-0.027,0-0.027,0-0.027l-0.475-0.061l-1.02,0.145l-0.264,0.187l-0.043,0.318
				l0.369,1.761l0.073,0.212c0,0.032,0.019,0.028,0.043,0.053c0.04-0.001,0.063,0.046,0.063,0.103V22.1l-0.048,0.312l0.183,0.286
				l-0.022,0.623l0.421,1.788l0.198,0.947l0.222,0.859l0.185,0.957l0.271,1.04l0.026,0.176l0.205,0.877l0.07,0.225
				c0.044,0.144,0.068,0.224,0.068,0.224c0,0.035,0,0.063-0.023,0.119l0.159,0.397l0.162,0.868l0.188,0.452l0.044,0.436l0.378,1.166
				l0.047,0.433l0.883,3.45l0.022,0.148c0,0.146,0.1,0.27,0.194,0.276l0.368,0.023l0.266,0.042l1.016,0.06l0.41-0.066l0.125-0.325
				l0.385-1.375l0.077-0.364l0.127-0.298l0.076-0.518l0.131-0.42v-0.337l0.184-0.333v-0.123l0.026-0.458l0.13-0.308l0.133-0.31
				l0.078-0.581l0.106-0.035l0.159,0.37l0.053,0.368v0.155l0.135,0.158v0.4l0.154,0.561l0.057,0.123
				c0.022,0,0.022,0.096,0.022,0.248c0,0.093,0.028,0.213,0.083,0.31l0.105,0.217l0.458,1.606l0.38,1.424l0.469,0.182l0.698,0.009
				l0.369,0.022l0.421-0.037l0.143,0.068v0.04l0.521-0.07l0.229-0.405l0.208-0.574l0.621-1.933l0.112-0.486l0.571-2.024l0.209-0.854
				l0.029-0.228l0.214-0.536l-0.061-0.23l0.303-0.533l-0.059-0.266c0-0.031,0-0.063,0-0.063c0-0.137,0.059-0.235,0.117-0.304
				c0.067-0.099,0.127-0.169,0.127-0.169l0.212-0.938l0.187-0.506l0.064-0.507l0.559-2.106l0.183-0.656l0.065-0.407l0.759-2.675
				v-0.373l0.42-1.07l0.028-0.449l0.035-0.106l-0.128-0.083l0.194-0.435l0.094-0.083l-0.094-0.228l0.26-0.444l0.064-0.351
				l0.358-1.396l0.034-0.52l0.035-0.144c-0.2-0.141-0.397-0.17-0.559-0.141c0,0,0,0-0.029,0.006l-0.133,0.055l-0.99,0.177
				l-0.535,0.088l-0.345,0.124l-0.121,0.155l-0.188,0.637l-0.121,1.15l-0.28,1.004l-0.06,0.675l-0.277,1.125c0,0,0,0-0.033,0.04
				c-0.033,0.001-0.033,0.035-0.064,0.074l-0.267,1.285l-0.119,0.669l-0.211,0.351v0.591l-0.092,0.071l-0.146,0.507l-0.09,0.464
				l-0.151,0.374l0.03,0.352l-0.092,0.341l-0.142,0.464l-0.062,0.455l-0.324,0.929l-0.144,0.561l-0.057,0.52l-0.439,1.497
				l-0.085,0.489l-0.258,1.032l-0.202,0.993c-0.028,0-0.054,0.027-0.054,0.027l-0.116,0.166l-0.059,0.028l-0.084,0.576h-0.029
				l-0.028,0.155l-0.14,0.418c-0.028,0-0.054,0-0.054,0c-0.088-0.006-0.142-0.043-0.142-0.073l-0.085-0.472l-0.14-0.293
				l-0.225-1.231l-0.057-0.064l-0.135-0.408l-0.139-0.441l-0.053-0.476l-0.137-0.121l-0.084-0.562l-0.272-0.965l-0.084-0.245
				c0,0,0,0,0.028-0.03l-0.085-0.092L99.41,29.17c0-0.186-0.028-0.279-0.028-0.311l-0.079-0.091v-0.185l-0.058-0.468l0.083-0.002
				v-0.468l0.521-1.979l0.106-0.479l0.138-0.611l0.446-1.657l0.054-0.483l0.144-0.462l0.051-0.295c0-0.126,0.028-0.225,0.056-0.256
				c0-0.036,0.026-0.068,0.026-0.068l0.112-0.427l0.115-0.335l0.168-1.016l0.142-0.433l0.088-0.464
				c0.028-0.002,0.028-0.067,0.057-0.134c0.025-0.069,0.025-0.136,0.054-0.201l0.084-0.5l-0.166-0.286l-0.959,0.07l-0.585,0.131
				l-0.439,0.169l-0.216,0.291l0.053,0.491l-0.161,0.026c0.025,0.025,0.025,0.025,0.025,0.056l-0.106,0.236l0.03,0.276l-0.138,0.49
				l-0.081,0.664l-0.213,0.871l-0.054,0.468l-0.105,0.358l-0.058,0.383c-0.026,0.248-0.026,0.278-0.154,0.316l0.027,0.282
				l0.052,0.147c0,0-0.028,0.003-0.078,0.041l-0.059,0.16l-0.053,0.007l-0.076,0.44l-0.053,0.342l-0.132,0.079l-0.026-0.157
				l0.053-0.004c-0.079-0.024-0.079-0.024-0.132-0.292l-0.051-0.334l-0.24-1.132l-0.152-0.987l-0.106,0.04l-0.053-0.204l0.08-0.353
				l-0.178-0.309l-0.078-0.167l0.048-0.313l-0.232-1.361l-0.102-0.379l-0.229-0.082l-1.375,0.242l-0.132-0.04
				c-0.018,0.001-0.018,0.036-0.049,0.099l-0.315,0.114l-0.048,0.155v0.356l0.095,0.547l0.175,0.36l0.024,0.442l0.146,0.747
				l0.045,0.437l0.153,0.399l0.048,0.445l0.177,0.424l0.049,0.44l0.196,0.521l0.278,1.349l0.127,0.322l0.301,1.394l0.333,1.192
				c0.052,0.203,0.077,0.359,0.077,0.387c0,0.063-0.024,0.153-0.077,0.279l-0.177,0.435l0.097,0.329l-0.254,0.346l-0.022,0.114
				l0.05,0.304l-0.077,0.301l-0.132,0.125l-0.121,0.52l-0.105,0.333l-0.226,1.23L95.43,34.43l-0.097-0.004
				c0.026-0.031,0.026-0.052,0.026-0.052l-0.143-0.395c0,0,0.018-0.032,0.043-0.062l-0.146-0.357l-0.199-0.887l-0.146-0.45
				l-0.119-0.498l-0.295-1.086l-0.093-0.409L94.097,29.8l-0.03-0.355l-0.072-0.084v-0.206l-0.098-0.525l-0.284-0.917l-0.12-0.431
				v-0.287l-0.118-0.404l-0.073-0.283l-0.02-0.289l-0.095-0.255l-0.283-1.393l-0.206-0.7l0.045-0.061l-0.069-0.454l-0.119-0.421
				l-0.021-0.284l0.047-0.123l-0.118-0.128l-0.114-0.759l-0.16-0.23l-0.232-1.374L91.799,19.377z"/>
		</g>
	</g>
	<g>
		<path fill="#7B7C7C" d="M139.611,14.406h2.654l1.775,4.895c0.305,0.843,0.645,2.206,0.645,2.206s0.359-1.38,0.754-2.206
			l2.348-5.003h0.251l2.385,5.003c0.395,0.825,0.754,2.206,0.754,2.206s0.34-1.363,0.645-2.206l1.757-4.895h2.438l-4.429,12.302
			h-0.251l-2.744-5.882c-0.322-0.682-0.681-1.811-0.681-1.811s-0.376,1.129-0.7,1.811l-2.851,5.882h-0.251L139.611,14.406z"/>
		<path fill="#7B7C7C" d="M156.445,20.503c0-3.604,2.797-6.258,6.312-6.258c3.515,0,6.312,2.654,6.312,6.258
			s-2.797,6.258-6.312,6.258S156.445,24.107,156.445,20.503z M166.487,20.503c0-2.277-1.506-4.017-3.73-4.017
			c-2.224,0-3.729,1.739-3.729,4.017s1.506,4.016,3.729,4.016C164.981,24.52,166.487,22.781,166.487,20.503z"/>
		<path fill="#7B7C7C" d="M170.786,20.503c0-3.604,2.798-6.258,6.312-6.258c3.514,0,6.312,2.654,6.312,6.258
			s-2.798,6.258-6.312,6.258C173.584,26.761,170.786,24.107,170.786,20.503z M180.828,20.503c0-2.277-1.506-4.017-3.73-4.017
			s-3.73,1.739-3.73,4.017s1.506,4.016,3.73,4.016S180.828,22.781,180.828,20.503z"/>
		<path fill="#7B7C7C" d="M185.541,14.406h3.748c3.748,0,6.419,2.493,6.419,6.097s-2.653,6.097-6.419,6.097h-3.748V14.406z
			 M189.162,24.394c2.708,0,3.946-1.614,3.946-3.891s-1.238-3.892-3.946-3.892h-1.112v7.782L189.162,24.394L189.162,24.394z"/>
		<path fill="#7B7C7C" d="M197.822,14.406h2.511v9.988h5.522V26.6h-8.033V14.406z"/>
		<path fill="#7B7C7C" d="M212.342,14.299h0.216l5.576,12.301h-2.636l-0.573-1.381h-4.949l-0.574,1.381h-2.42L212.342,14.299z
			 M214.029,23.122l-0.878-2.116c-0.358-0.861-0.736-2.188-0.736-2.188s-0.358,1.327-0.717,2.188l-0.88,2.116H214.029z"/>
		<path fill="#7B7C7C" d="M223.404,20.934c-0.609-0.574-1.452-1.667-1.452-1.667s0.179,1.344,0.179,2.224v5.11h-2.349V14.299h0.251
			l6.151,5.773c0.591,0.556,1.434,1.668,1.434,1.668s-0.16-1.381-0.16-2.224v-5.111h2.348v12.302h-0.251L223.404,20.934z"/>
		<path fill="#7B7C7C" d="M232.348,14.406h3.747c3.748,0,6.419,2.493,6.419,6.097s-2.653,6.097-6.419,6.097h-3.747V14.406
			L232.348,14.406z M235.97,24.394c2.707,0,3.945-1.614,3.945-3.891s-1.237-3.892-3.945-3.892h-1.111v7.782L235.97,24.394
			L235.97,24.394z"/>
		<path fill="#7B7C7C" d="M243.481,24.197l2.043-1.184c0.539,0.878,1.237,1.525,2.476,1.525c1.039,0,1.702-0.521,1.702-1.237
			c0-0.861-0.681-1.166-1.828-1.667l-0.628-0.27c-1.812-0.771-3.012-1.739-3.012-3.783c0-1.883,1.435-3.317,3.676-3.317
			c1.596,0,2.743,0.556,3.569,2.008l-1.956,1.256c-0.43-0.771-0.896-1.077-1.613-1.077c-0.734,0-1.201,0.467-1.201,1.077
			c0,0.752,0.467,1.057,1.542,1.523l0.628,0.269c2.134,0.915,3.334,1.847,3.334,3.945c0,2.259-1.773,3.497-4.159,3.497
			C245.721,26.761,244.215,25.65,243.481,24.197z"/>
		<path fill="#7B7C7C" d="M140.078,39.465c0-3.604,2.797-6.258,6.311-6.258c3.515,0,6.312,2.654,6.312,6.258
			s-2.797,6.258-6.312,6.258C142.875,45.723,140.078,43.069,140.078,39.465z M150.12,39.465c0-2.276-1.507-4.016-3.73-4.016
			c-2.223,0-3.729,1.74-3.729,4.016c0,2.278,1.506,4.017,3.729,4.017C148.613,43.482,150.12,41.742,150.12,39.465z"/>
		<path fill="#7B7C7C" d="M158.453,39.895c-0.61-0.574-1.452-1.667-1.452-1.667s0.178,1.345,0.178,2.224v5.11h-2.348V33.261h0.251
			l6.15,5.774c0.592,0.556,1.435,1.667,1.435,1.667s-0.162-1.381-0.162-2.223v-5.111h2.35V45.67h-0.251L158.453,39.895z"/>
		<path fill="#7B7C7C" d="M170.482,33.368h2.653l1.775,4.896c0.305,0.843,0.646,2.206,0.646,2.206s0.358-1.38,0.754-2.206
			l2.349-5.003h0.25l2.385,5.003c0.395,0.825,0.754,2.206,0.754,2.206s0.34-1.363,0.646-2.206l1.757-4.896h2.439l-4.429,12.302
			h-0.251l-2.744-5.882c-0.323-0.681-0.681-1.811-0.681-1.811s-0.376,1.129-0.7,1.811l-2.851,5.882h-0.251L170.482,33.368z"/>
		<path fill="#7B7C7C" d="M188.535,33.368h8.068v2.205h-5.559v3.875h4.896V41.6h-4.896v1.757h5.81v2.206h-8.32L188.535,33.368
			L188.535,33.368z"/>
		<path fill="#7B7C7C" d="M198.214,43.159l2.044-1.183c0.538,0.878,1.237,1.523,2.475,1.523c1.04,0,1.703-0.519,1.703-1.237
			c0-0.861-0.681-1.166-1.828-1.668l-0.627-0.269c-1.812-0.771-3.013-1.739-3.013-3.784c0-1.883,1.435-3.317,3.676-3.317
			c1.596,0,2.743,0.556,3.569,2.008l-1.956,1.255c-0.43-0.771-0.896-1.076-1.612-1.076c-0.735,0-1.202,0.466-1.202,1.076
			c0,0.754,0.466,1.058,1.543,1.524l0.627,0.269c2.134,0.914,3.335,1.846,3.335,3.945c0,2.259-1.775,3.496-4.16,3.496
			C200.454,45.723,198.949,44.611,198.214,43.159z"/>
		<path fill="#7B7C7C" d="M211.32,35.573h-3.478v-2.205h9.468v2.205h-3.479v9.988h-2.512V35.573z"/>
		<path fill="#7B7C7C" d="M225.895,35.573h-3.479v-2.205h9.468v2.205h-3.479v9.988h-2.511V35.573L225.895,35.573z"/>
		<path fill="#7B7C7C" d="M233.728,33.368h8.067v2.205h-5.558v3.875h4.896V41.6h-4.896v1.757h5.81v2.206h-8.32L233.728,33.368
			L233.728,33.368z"/>
		<path fill="#7B7C7C" d="M247.999,39.895c-0.611-0.574-1.453-1.667-1.453-1.667s0.18,1.345,0.18,2.224v5.11h-2.351V33.261h0.252
			l6.15,5.774c0.593,0.556,1.435,1.667,1.435,1.667s-0.161-1.381-0.161-2.223v-5.111h2.35V45.67h-0.252L247.999,39.895z"/>
		<path fill="#7B7C7C" d="M260.566,39.895c-0.61-0.574-1.452-1.667-1.452-1.667s0.179,1.345,0.179,2.224v5.11h-2.35V33.261h0.252
			l6.15,5.774c0.592,0.556,1.435,1.667,1.435,1.667s-0.161-1.381-0.161-2.223v-5.111h2.349V45.67h-0.251L260.566,39.895z"/>
		<path fill="#7B7C7C" d="M269.51,33.368h8.068v2.205h-5.559v3.875h4.895V41.6h-4.895v1.757h5.81v2.206h-8.32L269.51,33.368
			L269.51,33.368z"/>
		<path fill="#7B7C7C" d="M279.191,43.159l2.043-1.183c0.539,0.878,1.237,1.523,2.475,1.523c1.041,0,1.703-0.519,1.703-1.237
			c0-0.861-0.681-1.166-1.828-1.668l-0.627-0.269c-1.812-0.771-3.013-1.739-3.013-3.784c0-1.883,1.435-3.317,3.676-3.317
			c1.596,0,2.743,0.556,3.569,2.008l-1.955,1.255c-0.431-0.771-0.896-1.076-1.613-1.076c-0.735,0-1.202,0.466-1.202,1.076
			c0,0.754,0.467,1.058,1.542,1.524l0.628,0.269c2.134,0.914,3.335,1.846,3.335,3.945c0,2.259-1.774,3.496-4.16,3.496
			C281.431,45.723,279.925,44.611,279.191,43.159z"/>
		<path fill="#7B7C7C" d="M288.817,43.159l2.044-1.183c0.538,0.878,1.237,1.523,2.475,1.523c1.04,0,1.703-0.519,1.703-1.237
			c0-0.861-0.681-1.166-1.828-1.668l-0.628-0.269c-1.812-0.771-3.013-1.739-3.013-3.784c0-1.883,1.434-3.317,3.677-3.317
			c1.595,0,2.743,0.556,3.568,2.008l-1.955,1.255c-0.43-0.771-0.896-1.076-1.613-1.076c-0.734,0-1.201,0.466-1.201,1.076
			c0,0.754,0.466,1.058,1.542,1.524l0.627,0.269c2.135,0.914,3.335,1.846,3.335,3.945c0,2.259-1.774,3.496-4.159,3.496
			C291.058,45.723,289.551,44.611,288.817,43.159z"/>
		<path fill="#7B7C7C" d="M299.5,33.368h8.069v2.205h-5.559v3.875h4.896V41.6h-4.896v1.757h5.81v2.206h-8.32V33.368z"/>
		<path fill="#7B7C7C" d="M310.15,33.368h8.068v2.205h-5.558v3.875h4.895V41.6h-4.895v1.757h5.809v2.206h-8.319V33.368
			L310.15,33.368z"/>
	</g>
</g>
</svg>
