<?xml version="1.0" encoding="utf-8"?>
<!-- Generator: Adobe Illustrator 15.0.0, SVG Export Plug-In . SVG Version: 6.00 Build 0)  -->
<!DOCTYPE svg PUBLIC "-//W3C//DTD SVG 1.1//EN" "http://www.w3.org/Graphics/SVG/1.1/DTD/svg11.dtd">
<svg version="1.1" id="Layer_1" xmlns="http://www.w3.org/2000/svg" xmlns:xlink="http://www.w3.org/1999/xlink" x="0px" y="0px"
	 width="165.284px" height="61px" viewBox="0 0 165.284 61" enable-background="new 0 0 165.284 61" xml:space="preserve">
<g>
	<g>
		<g>
			<g>
				<g>
					<path fill="#7B7C7C" d="M73.454,49.657c0-2.334,1.793-4.012,4.035-4.012c2.23,0,4.024,1.678,4.024,4.012
						c0,2.333-1.793,4.012-4.024,4.012C75.248,53.669,73.454,51.989,73.454,49.657z M80.271,49.657c0-1.668-1.149-2.92-2.782-2.92
						c-1.632,0-2.794,1.252-2.794,2.92c0,1.666,1.162,2.919,2.794,2.919C79.122,52.576,80.271,51.323,80.271,49.657z"/>
				</g>
			</g>
			<g>
				<g>
					<path fill="#7B7C7C" d="M83.043,45.747h4.863v1.069h-3.645v3.139h3.312v1.081h-3.312v2.529h-1.218V45.747z"/>
				</g>
			</g>
			<g>
				<g>
					<path fill="#7B7C7C" d="M91.355,52.047l1-0.551c0.369,0.609,0.839,1.091,1.794,1.091c0.792,0,1.356-0.425,1.356-1.069
						c0-0.678-0.46-0.977-1.312-1.356l-0.518-0.229c-1.138-0.506-1.827-1.082-1.827-2.289c0-1.161,0.896-1.988,2.196-1.988
						c1.034,0,1.735,0.39,2.207,1.229l-0.955,0.586c-0.299-0.518-0.644-0.758-1.252-0.758c-0.622,0-1.012,0.379-1.012,0.908
						c0,0.586,0.333,0.851,1.126,1.196l0.506,0.229c1.334,0.586,2.047,1.207,2.047,2.46c0,1.368-1.07,2.162-2.542,2.162
						C92.689,53.669,91.793,52.933,91.355,52.047z"/>
				</g>
			</g>
			<g>
				<g>
					<path fill="#7B7C7C" d="M100.75,45.666h0.138l3.426,7.898h-1.265l-0.449-1.104h-3.574l-0.449,1.104h-1.172L100.75,45.666z
						 M102.164,51.438L101.187,49c-0.196-0.459-0.391-1.16-0.391-1.16s-0.186,0.701-0.38,1.16l-0.978,2.438H102.164z"/>
				</g>
			</g>
			<g>
				<g>
					<path fill="#7B7C7C" d="M107.373,49c-0.311-0.333-0.736-0.873-0.736-0.873s0.081,0.643,0.081,1.127v4.31h-1.127v-7.898h0.16
						l4.312,4.634c0.299,0.322,0.725,0.874,0.725,0.874s-0.08-0.689-0.08-1.127v-4.299h1.126v7.898h-0.149L107.373,49z"/>
				</g>
			</g>
			<g>
				<g>
					<path fill="#7B7C7C" d="M116.352,45.666h0.128l3.735,4.369l3.702-4.369h0.127v7.898h-1.161v-4.058
						c0-0.437,0.045-1.127,0.045-1.127s-0.378,0.586-0.701,0.944l-1.966,2.368h-0.138l-1.966-2.368
						c-0.299-0.357-0.69-0.944-0.69-0.944s0.047,0.69,0.047,1.127v4.058h-1.162V45.666z"/>
				</g>
			</g>
			<g>
				<g>
					<path fill="#7B7C7C" d="M128.666,45.666h0.138l3.426,7.898h-1.265l-0.447-1.104h-3.576l-0.448,1.104h-1.173L128.666,45.666z
						 M130.08,51.438L129.104,49c-0.196-0.459-0.391-1.16-0.391-1.16s-0.185,0.701-0.38,1.16l-0.977,2.438H130.08z"/>
				</g>
			</g>
			<g>
				<g>
					<path fill="#7B7C7C" d="M138.922,53.564h-1.402l-1.404-2.058c-0.218,0.023-0.437,0.046-0.654,0.046h-0.735v2.011h-1.22v-7.817
						h1.955c2.161,0,3.368,1.127,3.368,2.92c0,1.207-0.54,2.035-1.563,2.483L138.922,53.564z M135.415,50.506
						c1.552,0,2.172-0.678,2.172-1.839c0-1.173-0.643-1.851-2.172-1.851h-0.689v3.69H135.415z"/>
				</g>
			</g>
			<g>
				<g>
					<path fill="#7B7C7C" d="M140.106,49.657c0-2.334,1.793-4.001,4.012-4.001c1.403,0,2.438,0.517,3.128,1.552l-0.932,0.667
						c-0.437-0.679-1.172-1.126-2.196-1.126c-1.62,0-2.77,1.241-2.77,2.909c0,1.666,1.149,2.919,2.77,2.919
						c1.082,0,1.807-0.482,2.312-1.23L147.361,52c-0.679,1.036-1.782,1.668-3.243,1.668
						C141.899,53.669,140.106,51.989,140.106,49.657z"/>
				</g>
			</g>
			<g>
				<g>
					<path fill="#7B7C7C" d="M148.327,49.657c0-2.334,1.794-4.012,4.035-4.012c2.229,0,4.023,1.678,4.023,4.012
						c0,2.333-1.794,4.012-4.023,4.012C150.121,53.669,148.327,51.989,148.327,49.657z M155.145,49.657
						c0-1.668-1.149-2.92-2.782-2.92c-1.632,0-2.793,1.252-2.793,2.92c0,1.666,1.161,2.919,2.793,2.919
						C153.995,52.576,155.145,51.323,155.145,49.657z"/>
				</g>
			</g>
			<g>
				<g>
					<path fill="#7B7C7C" d="M157.158,52.047l1-0.551c0.368,0.609,0.839,1.091,1.794,1.091c0.793,0,1.355-0.425,1.355-1.069
						c0-0.678-0.46-0.977-1.31-1.356l-0.518-0.229c-1.139-0.506-1.829-1.082-1.829-2.289c0-1.161,0.897-1.988,2.196-1.988
						c1.035,0,1.736,0.39,2.207,1.229l-0.953,0.586c-0.3-0.518-0.645-0.758-1.254-0.758c-0.62,0-1.012,0.379-1.012,0.908
						c0,0.586,0.334,0.851,1.127,1.196l0.505,0.229c1.335,0.586,2.047,1.207,2.047,2.46c0,1.368-1.068,2.162-2.54,2.162
						C158.491,53.669,157.594,52.933,157.158,52.047z"/>
				</g>
			</g>
		</g>
	</g>
	<g>
		<g>
			<g>
				<g>
					<g>
						<path fill="#7B7C7C" d="M82.575,10.007c0.096,0.013,0.202,0.091,0.316,0.232c0.057,0.142,0.105,0.282,0.147,0.422
							c0,0,2.098,15.607,2.558,15.89c0.139-0.057,0.218-0.163,0.234-0.318l2.196-15.826c0.069-0.168,0.192-0.337,0.315-0.38
							c0.125-0.043,4.542,0,4.542,0c0.116,0,0.164,0.17,0.275,0.337c0.086,0.142,0.113,0.297,0.086,0.466
							c-0.029,0.169-4.888,29.001-4.945,29.198c-0.058,0.199-0.089,0.508-0.507,0.508c-0.057,0-0.147,0.008-0.274,0.021
							l-3.614-0.021c-0.169,0-0.281-0.035-0.338-0.105c-0.056-0.069-0.113-0.162-0.168-0.272c-0.115-0.17-0.161-0.332-0.148-0.488
							l-2.557-15.105c-0.028-0.112-0.062-0.192-0.105-0.233c-0.04-0.044-0.092-0.004-0.147,0.105l-2.854,15.867
							c-0.069,0.127-0.19,0.205-0.355,0.233l-4.038-0.062c-0.296-0.099-0.458-0.345-0.487-0.74l-4.773-28.522
							c-0.085-0.34-0.07-0.677,0.041-1.014c0.073-0.085,0.163-0.151,0.268-0.2l4.696,0.047c0.159,0.083,0.249,0.278,0.277,0.446
							l2.155,15.595c0.057,0.168,0.029,0.43,0.198,0.43c0.169,0,0.195-0.375,0.224-0.43l2.451-15.129
							c0.054-0.197,0.104-0.359,0.148-0.485c0.042-0.128,0.132-0.262,0.273-0.402c0.197-0.028,0.395-0.051,0.592-0.063H82.575z"/>
					</g>
				</g>
				<g>
					<g>
						<path fill="#7B7C7C" d="M110.335,34.448c-0.08,0.847-0.325,1.654-0.435,1.891c-0.229,0.504-0.567,0.955-0.857,1.429
							c-0.389,0.634-0.9,1.088-1.455,1.575c-0.445,0.388-0.931,0.732-1.458,0.997c-1.146,0.566-2.437,0.738-3.702,0.686
							c-2.289-0.094-4.916-0.794-6.268-2.795c-0.347-0.516-1.438-2.235-1.438-3.783c0-1.55-0.064-17.406-0.064-17.406
							c0.088-0.933,0.123-1.874,0.406-2.768c0.624-1.96,2.332-3.542,4.222-4.271c0.546-0.212,1.135-0.375,1.715-0.473
							c1.527-0.258,3.462-0.118,4.902,0.443c0.457,0.179,0.869,0.438,1.264,0.731c0.836,0.627,1.581,1.222,2.106,2.146
							c0.493,0.869,0.854,1.838,0.987,2.833c0.096,0.715,0.071,1.397,0.072,2.115L110.335,34.448z M100.229,33.081
							c0.041,0.719,0.192,1.412,0.655,1.978c0.147,0.18,0.357,0.481,0.563,0.593c1.057,0.577,2.427,0.264,2.952-0.859
							c0.201-0.424,0.287-0.885,0.321-1.363l-0.057-16.587c-0.114-1.251-0.562-2.328-2.051-2.362
							c-0.837-0.019-1.562,0.364-1.995,1.082c-0.517,0.85-0.359,1.614-0.359,1.856L100.229,33.081z"/>
					</g>
				</g>
				<g>
					<g>
						<path fill="#7B7C7C" d="M128.918,34.448c-0.079,0.847-0.325,1.654-0.436,1.891c-0.228,0.504-0.566,0.955-0.856,1.429
							c-0.39,0.634-0.898,1.088-1.453,1.575c-0.446,0.388-0.93,0.732-1.461,0.997c-1.145,0.566-2.438,0.738-3.701,0.686
							c-2.29-0.094-4.917-0.794-6.269-2.795c-0.348-0.516-1.437-2.235-1.437-3.783c0-1.55-0.063-17.406-0.063-17.406
							c0.084-0.933,0.121-1.874,0.404-2.768c0.624-1.96,2.333-3.542,4.223-4.271c0.544-0.212,1.135-0.375,1.712-0.473
							c1.528-0.258,3.464-0.118,4.904,0.443c0.458,0.179,0.87,0.438,1.262,0.731c0.837,0.627,1.582,1.222,2.108,2.146
							c0.495,0.869,0.854,1.838,0.988,2.833c0.095,0.715,0.068,1.397,0.071,2.115L128.918,34.448z M118.811,33.081
							c0.043,0.719,0.195,1.412,0.657,1.978c0.147,0.18,0.36,0.481,0.563,0.593c1.056,0.577,2.427,0.264,2.956-0.859
							c0.197-0.424,0.283-0.885,0.316-1.363l-0.057-16.587c-0.112-1.251-0.562-2.328-2.051-2.362
							c-0.837-0.019-1.559,0.364-1.993,1.082c-0.515,0.85-0.36,1.614-0.36,1.856L118.811,33.081z"/>
					</g>
				</g>
				<g>
					<g>
						<path fill="#7B7C7C" d="M132.88,40.665c-0.226,0-0.438-0.029-0.632-0.085c-0.199-0.055-0.328-0.169-0.381-0.339
							c-0.114-0.308-0.108-29.409-0.108-29.409c0.052-0.87,0.984-0.934,1.646-0.929c1.02,0.004,2.035,0.028,3.054,0.027
							c1.123-0.003,2.246,0.096,3.369,0.127c2.551,0.076,5.177,1.049,6.472,3.415c0.337,0.616,0.616,1.345,0.763,2.035
							c0.46,2.191,0.387,4.458,0.338,6.684c-0.034,1.576,0.073,3.148,0.029,4.722c-0.078,2.591,0.174,5.147-0.251,7.723
							c-0.334,2.008-1.279,3.993-2.679,4.879c-1.396,0.884-2.962,0.912-3.503,1.067L132.88,40.665z M137.359,35.066
							c0.03,0.21,0.069,0.344,0.125,0.4c0.087,0.141,0.227,0.24,0.424,0.295c1.249,0.355,3.286-0.04,3.738-1.345
							c0.301-0.869,0.197-15.355,0.176-16.403c-0.019-0.786-0.063-1.711-0.62-2.329c-0.511-0.564-1.212-0.698-1.935-0.758
							c-0.458-0.039-1.565-0.274-1.803,0.298c-0.032,0.075-0.057,0.153-0.071,0.236L137.359,35.066z"/>
					</g>
				</g>
				<g>
					<g>
						<path fill="#7B7C7C" d="M165.284,32.723c0,0.399-0.011,0.793-0.004,1.189c0.011,0.59-0.083,1.179-0.248,1.745
							c-0.17,0.566-0.464,1.046-0.692,1.584c-0.224,0.536-0.548,1.017-0.97,1.436c-0.404,0.404-0.859,0.738-1.329,1.058
							c-0.479,0.329-0.957,0.668-1.519,0.839c-0.608,0.187-1.252,0.264-1.883,0.329c-1.286,0.133-2.58-0.003-3.829-0.322
							c-0.786-0.204-1.451-0.561-2.097-1.042c-0.257-0.194-0.508-0.396-0.736-0.627c-0.505-0.498-0.917-1.083-1.237-1.712
							c-0.332-0.65-0.585-1.348-0.721-2.066c-0.134-0.696-0.118-1.405-0.145-2.114c-0.019-0.47-0.042-0.941-0.038-1.413
							c0.005-0.438,0.109-0.901,0.074-1.338c-0.017-0.167,0.091-0.323,0.317-0.463c0.511-0.272,0.896-0.066,1.423-0.114
							c0.954-0.088,1.933,0.029,2.888,0.029c0.31,0,0.477,0.225,0.507,0.676c0.065,0.855,0.045,1.706,0.082,2.559
							c0.036,0.747,0.113,1.541,0.525,2.187c0.222,0.347,0.574,0.61,0.968,0.743c0.576,0.193,1.302,0.274,1.869,0.006
							c0.447-0.214,0.886-0.526,1.099-0.989c0.203-0.449,0.189-0.953,0.215-1.434c0.044-0.905-0.261-1.802-0.694-2.585
							c-0.865-1.563-2.23-2.824-3.578-3.97c-0.352-0.3-0.638-0.671-0.965-0.995c-0.332-0.325-0.688-0.622-1.003-0.968
							c-0.497-0.544-0.947-1.133-1.371-1.736c-0.596-0.854-1.132-1.775-1.519-2.741c-0.768-1.898-0.763-4.28-0.223-6.239
							c0.41-1.482,1.568-2.704,2.778-3.597c0.805-0.592,1.738-0.952,2.724-1.104c1.912-0.296,4.163-0.041,5.81,1.043
							c0.924,0.613,1.865,1.534,2.282,2.583c0.265,0.661,0.624,1.282,0.717,2c0.098,0.724,0.027,1.462,0.086,2.193
							c0.056,0.737,0.152,1.488,0.042,2.229c-0.151,1-1.719,0.626-2.372,0.575c-0.702-0.051-1.41,0.074-2.108-0.026
							c-0.394-0.056-0.632-0.223-0.717-0.505c-0.084-0.282-0.097-0.578-0.041-0.889c0.122-0.661,0.086-1.456,0.004-2.121
							c-0.087-0.708-0.373-1.357-0.98-1.767c-0.955-0.647-2.389-0.439-2.886,0.674c-0.317,0.71-0.312,1.602-0.132,2.347
							c0.231,0.957,0.797,1.849,1.404,2.606c0.229,0.289,0.544,0.456,0.762,0.747c0.232,0.31,0.53,0.527,0.801,0.804
							c0.672,0.682,1.316,1.391,1.999,2.063c0.678,0.668,1.358,1.34,1.963,2.079c0.787,0.963,1.406,1.932,1.913,3.07
							c0.384,0.862,0.698,1.777,0.765,2.724C165.28,32.215,165.284,32.468,165.284,32.723z"/>
					</g>
				</g>
			</g>
		</g>
	</g>
	<g>
		<g>
			<path fill="#D59634" d="M54.079,57.417h-1.141v-0.723h3.105v0.723h-1.141v3.275h-0.824V57.417z"/>
			<path fill="#D59634" d="M56.652,56.653h0.065l1.969,2.163l1.941-2.163h0.071v4.039h-0.795v-1.498
				c0-0.271,0.031-0.701,0.031-0.701s-0.242,0.353-0.431,0.562l-0.792,0.891h-0.077l-0.796-0.891
				c-0.185-0.21-0.428-0.562-0.428-0.562s0.029,0.43,0.029,0.701v1.498h-0.788V56.653z"/>
		</g>
		<circle fill="#D59634" cx="30.501" cy="30.499" r="30.501"/>
		<g>
			<path fill="#FFFFFF" d="M42.649,44.3l-10.77-1.114l-7.914,10.305l1.078-11.012l-8.07-0.835V16.112l25.676-5.799V44.3z
				 M21.555,19.581c0-0.026,0-0.026,0-0.026l-0.479-0.06l-1.029,0.145l-0.266,0.19l-0.044,0.319l0.373,1.779l0.073,0.214
				c0,0.033,0.022,0.029,0.044,0.054c0.043-0.002,0.065,0.046,0.065,0.103v0.033l-0.049,0.316l0.184,0.289l-0.021,0.63l0.426,1.807
				l0.199,0.956l0.226,0.869l0.183,0.967l0.275,1.051l0.027,0.178l0.208,0.887l0.071,0.226c0.045,0.146,0.07,0.226,0.07,0.226
				c0,0.035,0,0.064-0.025,0.121l0.161,0.402l0.165,0.876l0.189,0.457l0.046,0.44l0.382,1.178l0.049,0.438l0.888,3.484l0.023,0.151
				c0,0.149,0.102,0.271,0.196,0.278l0.371,0.023l0.269,0.044l1.028,0.061l0.415-0.069l0.126-0.327l0.388-1.389l0.078-0.371
				l0.129-0.302l0.077-0.522l0.132-0.424v-0.342l0.184-0.334v-0.125l0.027-0.464l0.131-0.309l0.136-0.313l0.077-0.588l0.107-0.036
				l0.16,0.374l0.053,0.373v0.155l0.137,0.161v0.404l0.155,0.565l0.058,0.125c0.023,0,0.023,0.096,0.023,0.25
				c0,0.093,0.029,0.215,0.083,0.313l0.105,0.219l0.464,1.625l0.384,1.438l0.474,0.183l0.705,0.008l0.373,0.024l0.426-0.037
				l0.144,0.07v0.041l0.523-0.07l0.233-0.412l0.209-0.58l0.629-1.952l0.113-0.491l0.578-2.047l0.21-0.861l0.03-0.23l0.216-0.542
				l-0.061-0.233l0.306-0.539l-0.061-0.268c0-0.032,0-0.065,0-0.065c0-0.138,0.061-0.236,0.119-0.306
				c0.067-0.1,0.128-0.17,0.128-0.17l0.216-0.949l0.188-0.512l0.064-0.513l0.564-2.13l0.186-0.661l0.066-0.411l0.768-2.704v-0.375
				l0.423-1.082l0.029-0.453l0.037-0.106l-0.13-0.084l0.198-0.44l0.093-0.083l-0.093-0.23l0.26-0.449l0.063-0.354l0.364-1.41
				l0.035-0.526l0.033-0.145c-0.201-0.141-0.4-0.172-0.564-0.141c0,0,0,0-0.029,0.006L37.394,16.6l-1.001,0.177l-0.542,0.09
				l-0.347,0.126l-0.124,0.155l-0.19,0.644l-0.121,1.162l-0.283,1.015l-0.061,0.683l-0.28,1.137c0,0,0,0-0.032,0.039
				c-0.033,0.003-0.033,0.036-0.065,0.075l-0.27,1.297l-0.121,0.677l-0.213,0.354v0.598L33.652,24.9l-0.149,0.513l-0.09,0.468
				l-0.152,0.378l0.029,0.355l-0.092,0.345l-0.144,0.469l-0.062,0.459l-0.328,0.938l-0.144,0.568l-0.058,0.524l-0.444,1.514
				l-0.086,0.493l-0.261,1.043l-0.204,1.003c-0.029,0-0.056,0.029-0.056,0.029l-0.115,0.167l-0.06,0.028l-0.086,0.581h-0.029
				l-0.029,0.157l-0.142,0.421c-0.028,0-0.056,0-0.056,0c-0.089-0.004-0.141-0.043-0.141-0.071l-0.086-0.479l-0.142-0.296
				l-0.227-1.244l-0.06-0.063l-0.136-0.414l-0.141-0.444l-0.054-0.483l-0.137-0.12l-0.085-0.567l-0.276-0.976l-0.085-0.248
				c0,0,0,0,0.03-0.031l-0.088-0.093l-0.026-0.349c0-0.188-0.026-0.281-0.026-0.313l-0.08-0.092v-0.186l-0.059-0.472l0.084-0.003
				v-0.472l0.526-2.002l0.107-0.485l0.141-0.617l0.449-1.674l0.055-0.489l0.146-0.465l0.054-0.298c0-0.128,0.029-0.228,0.057-0.261
				c0-0.035,0.029-0.068,0.029-0.068l0.113-0.431l0.114-0.338l0.17-1.027l0.144-0.438l0.091-0.468
				c0.027-0.002,0.027-0.068,0.056-0.136c0.027-0.07,0.027-0.138,0.056-0.203l0.084-0.506l-0.168-0.288l-0.968,0.069l-0.592,0.134
				l-0.443,0.171l-0.219,0.293l0.055,0.496l-0.164,0.027c0.025,0.025,0.025,0.025,0.025,0.055l-0.108,0.239L29,19.506l-0.141,0.496
				l-0.081,0.67l-0.215,0.879l-0.055,0.471l-0.106,0.363l-0.058,0.387c-0.025,0.249-0.025,0.279-0.155,0.318l0.026,0.287
				l0.052,0.148c0,0-0.029,0.003-0.079,0.041l-0.06,0.162l-0.054,0.007l-0.076,0.444l-0.054,0.346l-0.135,0.081l-0.024-0.159
				l0.053-0.002c-0.081-0.025-0.081-0.025-0.135-0.296l-0.049-0.339l-0.244-1.144l-0.153-0.996l-0.107,0.04l-0.055-0.207
				l0.081-0.356l-0.181-0.312l-0.077-0.17l0.048-0.315l-0.233-1.375l-0.104-0.385l-0.231-0.08l-1.391,0.244l-0.131-0.041
				c-0.02,0.003-0.02,0.037-0.051,0.1l-0.318,0.114l-0.048,0.156v0.36l0.096,0.552l0.177,0.364l0.025,0.448l0.147,0.754l0.046,0.44
				l0.153,0.403l0.048,0.45l0.179,0.429l0.049,0.444l0.198,0.527l0.281,1.363l0.128,0.325l0.305,1.407l0.337,1.206
				c0.051,0.204,0.076,0.363,0.076,0.391c0,0.063-0.025,0.156-0.076,0.283l-0.18,0.439l0.099,0.332l-0.257,0.35l-0.021,0.115
				l0.049,0.306l-0.074,0.305l-0.135,0.128l-0.123,0.526l-0.107,0.335l-0.227,1.244l-0.43,1.48l-0.098-0.004
				c0.026-0.029,0.026-0.05,0.026-0.05l-0.145-0.4c0,0,0.021-0.032,0.044-0.062l-0.146-0.361l-0.203-0.896l-0.147-0.455
				l-0.121-0.503l-0.298-1.096l-0.093-0.414l-0.166-0.438l-0.03-0.359l-0.074-0.084v-0.208l-0.098-0.53l-0.288-0.926l-0.121-0.437
				V27.28l-0.119-0.407l-0.075-0.287l-0.016-0.291l-0.1-0.258l-0.285-1.408l-0.209-0.706l0.048-0.062l-0.072-0.458l-0.119-0.427
				l-0.021-0.288l0.045-0.123l-0.119-0.129L22.11,21.67l-0.162-0.233l-0.234-1.389L21.555,19.581z"/>
		</g>
	</g>
</g>
</svg>
