<?xml version="1.0" encoding="utf-8"?>
<!-- Generator: Adobe Illustrator 15.0.0, SVG Export Plug-In . SVG Version: 6.00 Build 0)  -->
<!DOCTYPE svg PUBLIC "-//W3C//DTD SVG 1.1//EN" "http://www.w3.org/Graphics/SVG/1.1/DTD/svg11.dtd">
<svg version="1.1" id="Layer_1" xmlns="http://www.w3.org/2000/svg" xmlns:xlink="http://www.w3.org/1999/xlink" x="0px" y="0px"
	 width="43px" height="43.001px" viewBox="-6.485 0 43 43.001" enable-background="new -6.485 0 43 43.001" xml:space="preserve">
<g>
	<path fill="#656566" d="M28.462,33.974c-0.604-1.424-8.033-3.611-8.648-3.646l-0.495,0.037c-1.014,0.207-2.128,1.166-4.475,3.243
		c-2.637-1.221-6.256-4.479-7.961-6.4c-1.844-2.075-4.145-5.575-4.971-8.188c2.671-2.367,3.787-3.396,3.855-4.537
		c0.036-0.616-1.24-8.252-2.577-9.027L2.788,5.202C1.93,4.651,0.642,3.817-0.794,4.113c-0.351,0.071-0.687,0.209-1.004,0.405
		c-0.964,0.605-3.324,2.244-4.395,4.381c-0.666,1.333-0.966,13.492,8.145,23.767c9.004,10.161,20.105,10.601,21.775,10.26
		l0.046-0.008l0.149-0.044c2.247-0.808,4.159-2.952,4.875-3.842c1.321-1.633,0.376-3.582-0.133-4.626L28.462,33.974z"/>
	<path fill="#656566" d="M16.931,19.585c0.651,0.654,0.85,1.557,0.685,2.403l2.741-0.032c0.133-1.526-0.362-3.103-1.528-4.271
		c-1.168-1.169-2.742-1.664-4.273-1.529L14.525,18.9C15.372,18.734,16.275,18.931,16.931,19.585z"/>
	<path fill="#656566" d="M25.735,21.893l2.689-0.03c0.104-3.566-1.175-7.158-3.895-9.876c-2.717-2.723-6.313-4.001-9.878-3.901
		l-0.032,2.697c2.891-0.112,5.808,0.902,8.008,3.103C24.831,16.084,25.843,19.005,25.735,21.893z"/>
	<path fill="#656566" d="M30.232,6.284c-4.27-4.267-9.887-6.354-15.485-6.282l-0.029,2.697c4.915-0.081,9.869,1.739,13.616,5.486
		c3.744,3.748,5.563,8.695,5.483,13.614l2.696-0.028C36.582,16.172,34.5,10.553,30.232,6.284z"/>
</g>
</svg>
