<?xml version="1.0" encoding="utf-8"?>
<!-- Generator: Adobe Illustrator 15.0.0, SVG Export Plug-In . SVG Version: 6.00 Build 0)  -->
<!DOCTYPE svg PUBLIC "-//W3C//DTD SVG 1.1//EN" "http://www.w3.org/Graphics/SVG/1.1/DTD/svg11.dtd">
<svg version="1.1" id="Layer_1" xmlns="http://www.w3.org/2000/svg" xmlns:xlink="http://www.w3.org/1999/xlink" x="0px" y="0px"
	 width="46px" height="45.996px" viewBox="-7.048 0 46 45.996" enable-background="new -7.048 0 46 45.996" xml:space="preserve">
<g>
	<path fill="#656566" d="M18.823,4.576l8.625,4.146v11.81c0.927-0.241,1.876-0.409,2.876-0.409V6.912L17.386,0.691L5.889,6.222
		L-7.048,0v34.814l12.937,6.223l11.5-5.532l1.435,0.694V4.576z M4.452,37.155l-8.625-4.151V4.576l8.625,4.146V37.155z
		 M15.952,33.004l-8.625,4.151V8.722l8.625-4.146V33.004z"/>
	<path fill="#656566" d="M30.325,22.999c-4.761,0-8.624,3.859-8.624,8.625c0,3.271,1.84,6.083,4.525,7.544l4.1,6.828l4.101-6.828
		c2.683-1.463,4.525-4.274,4.525-7.544C38.949,26.858,35.093,22.999,30.325,22.999z M30.325,34.498
		c-1.588,0-2.875-1.287-2.875-2.872c0-1.592,1.288-2.876,2.875-2.876c1.59,0,2.875,1.286,2.875,2.876
		C33.2,33.211,31.913,34.498,30.325,34.498z"/>
</g>
</svg>
