<?xml version="1.0" encoding="utf-8"?>
<!-- Generator: Adobe Illustrator 15.0.0, SVG Export Plug-In . SVG Version: 6.00 Build 0)  -->
<!DOCTYPE svg PUBLIC "-//W3C//DTD SVG 1.1//EN" "http://www.w3.org/Graphics/SVG/1.1/DTD/svg11.dtd">
<svg version="1.1" id="Layer_1" xmlns="http://www.w3.org/2000/svg" xmlns:xlink="http://www.w3.org/1999/xlink" x="0px" y="0px"
	 width="31.903px" height="31.902px" viewBox="0 0 31.903 31.902" enable-background="new 0 0 31.903 31.902" xml:space="preserve">
<g>
	<path fill="#BCB9B9" d="M17.944,3.174l5.982,2.876v8.19c0.643-0.167,1.301-0.283,1.994-0.283V4.794l-8.973-4.315L8.973,4.315L0,0
		v24.146l8.973,4.316l7.975-3.837l0.996,0.481V3.174z M7.976,25.769L1.994,22.89V3.174L7.976,6.05V25.769z M15.952,22.89
		L9.97,25.769V6.05l5.982-2.876V22.89z"/>
	<path fill="#BCB9B9" d="M25.921,15.951c-3.302,0-5.981,2.677-5.981,5.982c0,2.269,1.276,4.219,3.138,5.233l2.844,4.735l2.844-4.735
		c1.86-1.015,3.139-2.965,3.139-5.233C31.903,18.628,29.228,15.951,25.921,15.951z M25.921,23.927c-1.101,0-1.994-0.893-1.994-1.993
		c0-1.103,0.894-1.994,1.994-1.994c1.103,0,1.994,0.892,1.994,1.994C27.915,23.034,27.023,23.927,25.921,23.927z"/>
</g>
</svg>
