<?xml version="1.0" encoding="utf-8"?>
<!-- Generator: Adobe Illustrator 15.0.0, SVG Export Plug-In . SVG Version: 6.00 Build 0)  -->
<!DOCTYPE svg PUBLIC "-//W3C//DTD SVG 1.1//EN" "http://www.w3.org/Graphics/SVG/1.1/DTD/svg11.dtd">
<svg version="1.1" id="Layer_1" xmlns="http://www.w3.org/2000/svg" xmlns:xlink="http://www.w3.org/1999/xlink" x="0px" y="0px"
	 width="208.092px" height="61.001px" viewBox="-146.168 246.217 208.092 61.001"
	 enable-background="new -146.168 246.217 208.092 61.001" xml:space="preserve">
<g>
	<g>
		<circle fill="#D49534" cx="-115.667" cy="276.716" r="30.502"/>
		<g>
			<path fill="#FFFFFF" d="M-103.521,290.518l-10.768-1.115l-7.915,10.305l1.078-11.012l-8.069-0.836v-25.532l25.675-5.798V290.518z
				 M-124.614,265.798c0-0.027,0-0.027,0-0.027l-0.479-0.061l-1.03,0.146l-0.266,0.188l-0.044,0.32l0.374,1.779l0.074,0.214
				c0,0.033,0.02,0.028,0.044,0.054c0.04-0.001,0.063,0.047,0.063,0.104v0.033l-0.049,0.315l0.185,0.289l-0.023,0.63l0.427,1.807
				l0.2,0.956l0.225,0.869l0.186,0.967l0.274,1.051l0.026,0.178l0.208,0.888l0.07,0.227c0.045,0.145,0.069,0.226,0.069,0.226
				c0,0.035,0,0.064-0.023,0.12l0.161,0.403l0.164,0.876l0.189,0.456l0.046,0.441l0.381,1.178l0.048,0.437l0.891,3.486l0.022,0.149
				c0,0.148,0.101,0.272,0.196,0.279l0.371,0.023l0.269,0.043l1.027,0.061l0.414-0.067l0.127-0.328l0.389-1.389l0.079-0.37
				l0.128-0.301l0.077-0.522l0.133-0.426v-0.34l0.186-0.337v-0.124l0.026-0.463l0.132-0.311l0.134-0.313l0.078-0.586l0.107-0.036
				l0.16,0.374l0.054,0.372v0.155l0.136,0.16v0.404l0.156,0.566l0.057,0.125c0.023,0,0.023,0.097,0.023,0.25
				c0,0.094,0.029,0.216,0.083,0.313l0.106,0.219l0.462,1.623l0.384,1.438l0.474,0.184l0.705,0.01l0.373,0.022l0.426-0.037
				l0.144,0.069v0.04l0.526-0.07l0.231-0.409l0.21-0.58l0.627-1.953l0.114-0.49l0.577-2.047l0.212-0.862l0.029-0.229l0.217-0.543
				l-0.062-0.232l0.307-0.539l-0.061-0.268c0-0.032,0-0.063,0-0.063c0-0.14,0.061-0.237,0.118-0.308
				c0.068-0.1,0.129-0.17,0.129-0.17l0.215-0.949l0.188-0.513l0.065-0.512l0.564-2.129l0.185-0.662l0.067-0.412l0.767-2.703v-0.375
				l0.425-1.083l0.028-0.453l0.036-0.106l-0.13-0.085l0.196-0.438l0.095-0.084l-0.095-0.229l0.263-0.45l0.064-0.354l0.362-1.411
				l0.035-0.524l0.035-0.146c-0.201-0.142-0.401-0.172-0.565-0.142c0,0,0,0-0.029,0.007l-0.134,0.055l-1,0.179l-0.54,0.089
				l-0.349,0.125l-0.122,0.156l-0.19,0.644l-0.122,1.163l-0.284,1.014l-0.06,0.683l-0.28,1.138c0,0,0,0-0.034,0.039
				c-0.032,0.002-0.032,0.035-0.064,0.075l-0.27,1.298l-0.121,0.676l-0.213,0.354v0.598l-0.093,0.071l-0.148,0.514l-0.09,0.469
				l-0.153,0.378l0.03,0.355l-0.093,0.345l-0.144,0.468l-0.062,0.46l-0.328,0.938l-0.146,0.567l-0.058,0.525l-0.444,1.513
				l-0.085,0.493l-0.26,1.043l-0.206,1.004c-0.028,0-0.054,0.027-0.054,0.027l-0.117,0.168l-0.06,0.028l-0.085,0.582h-0.029
				l-0.03,0.156l-0.142,0.422c-0.028,0-0.054,0-0.054,0c-0.089-0.005-0.142-0.043-0.142-0.072l-0.087-0.478l-0.142-0.296
				l-0.227-1.245l-0.059-0.063l-0.137-0.413l-0.14-0.445l-0.053-0.481l-0.139-0.122l-0.085-0.567l-0.276-0.975l-0.084-0.248
				c0,0,0,0,0.027-0.03l-0.086-0.094l-0.026-0.349c0-0.188-0.028-0.281-0.028-0.312l-0.079-0.093v-0.187l-0.059-0.473l0.084-0.002
				v-0.474l0.526-2l0.107-0.485l0.141-0.617l0.45-1.674l0.056-0.489l0.145-0.466l0.054-0.298c0-0.128,0.029-0.228,0.057-0.26
				c0-0.035,0.028-0.068,0.028-0.068l0.113-0.432l0.114-0.339l0.171-1.027l0.143-0.437l0.089-0.47
				c0.028-0.002,0.028-0.067,0.058-0.136c0.025-0.069,0.025-0.138,0.054-0.202l0.085-0.506l-0.168-0.288l-0.969,0.069l-0.591,0.133
				l-0.443,0.171l-0.219,0.294l0.054,0.496l-0.163,0.025c0.025,0.025,0.025,0.025,0.025,0.056l-0.107,0.239l0.03,0.279l-0.14,0.495
				l-0.082,0.67l-0.215,0.88l-0.055,0.473l-0.106,0.362l-0.057,0.386c-0.026,0.251-0.026,0.281-0.156,0.32l0.026,0.285l0.052,0.148
				c0,0-0.029,0.003-0.078,0.041l-0.06,0.162l-0.053,0.007l-0.077,0.445l-0.054,0.346l-0.134,0.08l-0.027-0.158l0.054-0.004
				c-0.079-0.024-0.079-0.024-0.133-0.296l-0.052-0.338l-0.243-1.145l-0.154-0.997l-0.106,0.041l-0.054-0.206l0.08-0.356
				l-0.179-0.312l-0.078-0.169l0.048-0.316l-0.234-1.376l-0.104-0.383l-0.231-0.082l-1.389,0.244l-0.133-0.041
				c-0.019,0.003-0.019,0.037-0.049,0.101l-0.32,0.115l-0.048,0.156v0.359l0.097,0.553l0.177,0.364l0.024,0.447l0.148,0.755
				l0.046,0.44l0.154,0.403l0.048,0.45l0.179,0.429l0.048,0.444l0.199,0.527l0.281,1.362l0.128,0.325l0.305,1.408l0.336,1.205
				c0.052,0.205,0.078,0.362,0.078,0.391c0,0.064-0.025,0.155-0.078,0.282l-0.178,0.439l0.098,0.332l-0.256,0.35l-0.021,0.115
				l0.05,0.308l-0.077,0.305l-0.134,0.126l-0.123,0.526l-0.106,0.335l-0.227,1.244l-0.431,1.481l-0.098-0.004
				c0.027-0.031,0.027-0.052,0.027-0.052l-0.144-0.398c0,0,0.018-0.033,0.042-0.062l-0.147-0.36l-0.201-0.896l-0.148-0.455
				l-0.121-0.504l-0.298-1.097l-0.094-0.413l-0.166-0.437l-0.03-0.359l-0.073-0.085v-0.208l-0.099-0.53l-0.287-0.927l-0.121-0.436
				v-0.29l-0.12-0.408l-0.074-0.286l-0.019-0.292l-0.097-0.258l-0.286-1.407l-0.208-0.707l0.045-0.061l-0.07-0.459l-0.12-0.426
				l-0.021-0.287l0.047-0.124l-0.119-0.129l-0.115-0.768l-0.162-0.232l-0.234-1.388L-124.614,265.798z"/>
		</g>
	</g>
	<g>
		<path fill="#7B7C7C" d="M-76.299,260.775h2.682l1.794,4.946c0.308,0.852,0.652,2.229,0.652,2.229s0.362-1.395,0.761-2.229
			l2.374-5.056h0.254l2.41,5.056c0.399,0.834,0.761,2.229,0.761,2.229s0.344-1.377,0.652-2.229l1.776-4.946h2.464l-4.476,12.431
			h-0.254l-2.772-5.944c-0.327-0.688-0.689-1.83-0.689-1.83s-0.38,1.142-0.707,1.83l-2.881,5.944h-0.253L-76.299,260.775z"/>
		<path fill="#7B7C7C" d="M-59.288,266.936c0-3.642,2.827-6.323,6.378-6.323c3.551,0,6.378,2.682,6.378,6.323
			c0,3.643-2.827,6.324-6.378,6.324C-56.461,273.26-59.288,270.578-59.288,266.936z M-49.141,266.936
			c0-2.301-1.522-4.059-3.769-4.059s-3.769,1.758-3.769,4.059c0,2.302,1.522,4.059,3.769,4.059S-49.141,269.237-49.141,266.936z"/>
		<path fill="#7B7C7C" d="M-44.796,266.936c0-3.642,2.827-6.323,6.379-6.323c3.551,0,6.378,2.682,6.378,6.323
			c0,3.643-2.827,6.324-6.378,6.324C-41.969,273.26-44.796,270.578-44.796,266.936z M-34.649,266.936
			c0-2.301-1.521-4.059-3.769-4.059s-3.769,1.758-3.769,4.059c0,2.302,1.522,4.059,3.769,4.059S-34.649,269.237-34.649,266.936z"/>
		<path fill="#7B7C7C" d="M-29.886,260.775h3.787c3.788,0,6.487,2.519,6.487,6.16c0,3.643-2.682,6.161-6.487,6.161h-3.787V260.775z
			 M-26.226,270.868c2.736,0,3.986-1.631,3.986-3.933c0-2.301-1.25-3.932-3.986-3.932h-1.124v7.864H-26.226z"/>
		<path fill="#7B7C7C" d="M-17.477,260.775h2.537v10.093h5.581v2.229h-8.118V260.775z"/>
		<path fill="#7B7C7C" d="M-2.803,260.666h0.218l5.635,12.431H0.386l-0.58-1.395h-5.001l-0.58,1.395H-8.22L-2.803,260.666z
			 M-1.099,269.581l-0.888-2.138c-0.362-0.87-0.743-2.211-0.743-2.211s-0.362,1.341-0.725,2.211l-0.888,2.138H-1.099z"/>
		<path fill="#7B7C7C" d="M8.375,267.371c-0.617-0.58-1.468-1.686-1.468-1.686s0.181,1.359,0.181,2.247v5.164H4.714v-12.431h0.253
			l6.215,5.835c0.598,0.562,1.45,1.686,1.45,1.686s-0.163-1.396-0.163-2.247v-5.164h2.374v12.431h-0.254L8.375,267.371z"/>
		<path fill="#7B7C7C" d="M17.413,260.775H21.2c3.788,0,6.487,2.519,6.487,6.16c0,3.643-2.682,6.161-6.487,6.161h-3.787V260.775z
			 M21.073,270.868c2.736,0,3.986-1.631,3.986-3.933c0-2.301-1.25-3.932-3.986-3.932h-1.124v7.864H21.073z"/>
		<path fill="#7B7C7C" d="M28.663,270.669l2.065-1.196c0.544,0.888,1.25,1.541,2.501,1.541c1.051,0,1.721-0.526,1.721-1.251
			c0-0.87-0.688-1.178-1.848-1.686l-0.634-0.271c-1.831-0.779-3.044-1.758-3.044-3.823c0-1.903,1.45-3.352,3.714-3.352
			c1.613,0,2.772,0.562,3.606,2.029l-1.975,1.268c-0.435-0.778-0.906-1.087-1.631-1.087c-0.743,0-1.214,0.471-1.214,1.087
			c0,0.762,0.471,1.069,1.559,1.541l0.634,0.271c2.156,0.924,3.371,1.866,3.371,3.986c0,2.283-1.794,3.533-4.204,3.533
			C30.927,273.26,29.405,272.137,28.663,270.669z"/>
		<path fill="#7B7C7C" d="M-75.828,286.098c0-3.643,2.827-6.324,6.378-6.324c3.551,0,6.378,2.682,6.378,6.324
			c0,3.642-2.827,6.324-6.378,6.324C-73.001,292.422-75.828,289.739-75.828,286.098z M-65.68,286.098c0-2.302-1.522-4.06-3.769-4.06
			c-2.247,0-3.769,1.758-3.769,4.06c0,2.301,1.522,4.059,3.769,4.059C-67.203,290.156-65.68,288.398-65.68,286.098z"/>
		<path fill="#7B7C7C" d="M-60.918,279.937h7.937v2.229h-5.4v4.077h4.911v2.266h-4.911v3.75h-2.537V279.937z"/>
		<path fill="#7B7C7C" d="M-47.26,286.098c0-3.643,2.573-6.307,6.288-6.307c2.011,0,3.461,0.544,4.476,1.704l-1.721,1.703
			c-0.616-0.635-1.323-1.124-2.754-1.124c-2.229,0-3.679,1.722-3.679,4.023c0,2.301,1.486,4.059,4.077,4.059
			c0.797,0,1.775-0.145,2.41-0.453v-1.812h-2.971v-2.229h5.291v5.327c-0.707,0.58-2.482,1.433-4.729,1.433
			C-44.596,292.422-47.26,289.739-47.26,286.098z"/>
		<path fill="#7B7C7C" d="M-29.306,279.828h0.218l5.635,12.43h-2.664l-0.58-1.395h-5.001l-0.58,1.395h-2.446L-29.306,279.828z
			 M-27.602,288.743l-0.888-2.139c-0.362-0.869-0.743-2.211-0.743-2.211s-0.362,1.342-0.725,2.211l-0.888,2.139H-27.602z"/>
		<path fill="#7B7C7C" d="M-21.734,279.937h2.537v12.321h-2.537V279.937z"/>
		<path fill="#7B7C7C" d="M-12.93,286.532c-0.617-0.58-1.468-1.686-1.468-1.686s0.181,1.359,0.181,2.248v5.163h-2.374v-12.43h0.253
			l6.215,5.834c0.598,0.562,1.45,1.686,1.45,1.686s-0.163-1.396-0.163-2.247v-5.164h2.374v12.431h-0.253L-12.93,286.532z"/>
		<path fill="#7B7C7C" d="M-3.891,279.937h8.154v2.229h-5.617v3.914h4.947v2.174h-4.947v1.776h5.871v2.229h-8.407V279.937z"/>
		<path fill="#7B7C7C" d="M5.891,289.83l2.065-1.196c0.544,0.888,1.25,1.541,2.5,1.541c1.052,0,1.722-0.525,1.722-1.251
			c0-0.869-0.688-1.178-1.848-1.685l-0.634-0.272c-1.83-0.778-3.044-1.758-3.044-3.823c0-1.902,1.45-3.353,3.714-3.353
			c1.613,0,2.772,0.562,3.606,2.03l-1.975,1.269c-0.435-0.779-0.906-1.087-1.631-1.087c-0.743,0-1.214,0.471-1.214,1.087
			c0,0.761,0.471,1.068,1.559,1.54l0.634,0.271c2.156,0.925,3.371,1.866,3.371,3.986c0,2.283-1.794,3.534-4.204,3.534
			C8.156,292.422,6.633,291.298,5.891,289.83z"/>
		<path fill="#7B7C7C" d="M15.058,279.937h2.718l2.121,4.748c0.471,1.051,0.96,2.79,0.96,2.79s0.471-1.722,0.942-2.79l2.065-4.748
			h2.464l-5.399,12.431h-0.254L15.058,279.937z"/>
		<path fill="#7B7C7C" d="M28.046,279.937h2.537v12.321h-2.537V279.937z"/>
		<path fill="#7B7C7C" d="M33.191,279.937h2.536v10.093h5.582v2.229h-8.118V279.937z"/>
		<path fill="#7B7C7C" d="M43.354,279.937h2.537v10.093h5.581v2.229h-8.118V279.937z"/>
		<path fill="#7B7C7C" d="M53.516,279.937h8.154v2.229h-5.617v3.914H61v2.174h-4.947v1.776h5.871v2.229h-8.407V279.937z"/>
	</g>
</g>
</svg>
