<?xml version="1.0" encoding="utf-8"?>
<!-- Generator: Adobe Illustrator 15.0.0, SVG Export Plug-In . SVG Version: 6.00 Build 0)  -->
<!DOCTYPE svg PUBLIC "-//W3C//DTD SVG 1.1//EN" "http://www.w3.org/Graphics/SVG/1.1/DTD/svg11.dtd">
<svg version="1.1" id="Layer_1" xmlns="http://www.w3.org/2000/svg" xmlns:xlink="http://www.w3.org/1999/xlink" x="0px" y="0px"
	 width="43px" height="43px" viewBox="25.838 -0.003 43 43" enable-background="new 25.838 -0.003 43 43" xml:space="preserve">
<g>
	<g>
		<circle fill="#D59634" cx="47.338" cy="21.497" r="21.5"/>
		<g>
			<path fill="#FFFFFF" d="M55.899,31.225l-7.59-0.785l-5.58,7.263l0.759-7.763l-5.688-0.589V11.355l18.099-4.087V31.225
				L55.899,31.225z M41.031,13.801c0-0.02,0-0.02,0-0.02l-0.338-0.042l-0.727,0.103l-0.188,0.133l-0.03,0.226l0.263,1.254
				l0.051,0.151c0,0.023,0.014,0.02,0.031,0.038c0.028-0.001,0.045,0.033,0.045,0.073v0.023l-0.034,0.223l0.13,0.204l-0.016,0.443
				l0.3,1.273l0.141,0.675l0.158,0.612l0.131,0.681l0.194,0.741l0.019,0.125l0.146,0.625l0.049,0.16
				c0.032,0.103,0.048,0.16,0.048,0.16c0,0.025,0,0.045-0.016,0.085l0.113,0.282l0.116,0.619l0.133,0.322l0.032,0.312l0.27,0.829
				l0.033,0.309l0.629,2.458l0.015,0.105c0,0.104,0.071,0.192,0.139,0.197l0.262,0.016l0.189,0.03l0.724,0.042l0.292-0.047
				l0.089-0.231l0.274-0.98l0.055-0.26l0.09-0.212l0.054-0.369l0.093-0.299v-0.24l0.131-0.238v-0.087l0.019-0.326l0.092-0.219
				l0.095-0.221l0.055-0.413l0.076-0.025l0.113,0.263l0.038,0.262v0.11l0.096,0.112v0.285l0.11,0.399l0.041,0.087
				c0.016,0,0.016,0.068,0.016,0.177c0,0.067,0.02,0.152,0.059,0.22l0.075,0.155l0.326,1.145l0.271,1.013l0.334,0.129l0.497,0.007
				l0.263,0.016l0.3-0.027l0.102,0.049v0.028l0.371-0.049l0.162-0.289l0.148-0.409l0.441-1.377l0.081-0.346l0.407-1.442l0.148-0.609
				l0.021-0.162l0.154-0.382l-0.044-0.165l0.216-0.379l-0.042-0.189c0-0.022,0-0.045,0-0.045c0-0.098,0.042-0.167,0.084-0.216
				c0.047-0.071,0.09-0.121,0.09-0.121l0.151-0.668l0.133-0.361l0.046-0.361l0.398-1.5l0.13-0.467l0.048-0.29l0.54-1.906v-0.264
				l0.299-0.763l0.021-0.319l0.024-0.075l-0.091-0.06l0.138-0.31l0.066-0.06l-0.066-0.162l0.186-0.317l0.046-0.249l0.255-0.995
				l0.024-0.37l0.025-0.103c-0.143-0.1-0.283-0.121-0.398-0.1c0,0,0,0-0.021,0.004l-0.095,0.039l-0.705,0.126l-0.382,0.062
				l-0.244,0.088l-0.087,0.11l-0.134,0.453l-0.086,0.82l-0.2,0.715l-0.043,0.48l-0.197,0.802c0,0,0,0-0.023,0.028
				c-0.023,0.001-0.023,0.024-0.046,0.053l-0.19,0.915l-0.085,0.477l-0.15,0.25V17.5l-0.066,0.05l-0.104,0.361l-0.063,0.331
				l-0.107,0.266l0.021,0.25l-0.065,0.243l-0.102,0.331l-0.044,0.323l-0.23,0.663l-0.104,0.399l-0.04,0.37l-0.312,1.067
				l-0.061,0.348l-0.184,0.735l-0.145,0.707c-0.02,0-0.038,0.02-0.038,0.02l-0.083,0.118l-0.039,0.02l-0.06,0.411h-0.021
				l-0.02,0.109l-0.1,0.298c-0.02,0-0.039,0-0.039,0c-0.063-0.004-0.101-0.03-0.101-0.051l-0.062-0.336l-0.1-0.208l-0.16-0.877
				L47.154,23.4l-0.096-0.291l-0.099-0.314l-0.038-0.339l-0.096-0.086l-0.061-0.4l-0.194-0.687l-0.06-0.175c0,0,0,0,0.02-0.021
				l-0.061-0.066l-0.018-0.246c0-0.133-0.021-0.199-0.021-0.221l-0.056-0.065v-0.132l-0.042-0.333l0.06-0.002V19.69l0.37-1.41
				l0.076-0.342l0.098-0.435l0.318-1.18l0.039-0.344l0.103-0.329l0.036-0.21c0-0.09,0.02-0.16,0.04-0.183
				c0-0.025,0.019-0.048,0.019-0.048l0.08-0.305l0.082-0.238l0.12-0.724l0.101-0.309l0.063-0.331c0.02-0.002,0.02-0.048,0.04-0.095
				c0.019-0.049,0.019-0.097,0.038-0.143l0.061-0.357l-0.119-0.203l-0.684,0.049l-0.417,0.094l-0.313,0.121l-0.154,0.207l0.038,0.35
				l-0.115,0.018c0.019,0.019,0.019,0.019,0.019,0.04l-0.076,0.168l0.021,0.197l-0.098,0.349l-0.058,0.473l-0.152,0.621
				l-0.039,0.333l-0.075,0.255l-0.041,0.272c-0.018,0.177-0.018,0.199-0.109,0.226l0.019,0.201l0.037,0.104
				c0,0-0.02,0.002-0.055,0.029l-0.042,0.114l-0.038,0.005l-0.054,0.313l-0.038,0.244l-0.094,0.057l-0.019-0.111l0.038-0.003
				c-0.057-0.017-0.057-0.017-0.095-0.208l-0.036-0.238l-0.171-0.807l-0.108-0.703l-0.075,0.028l-0.038-0.145l0.057-0.251
				l-0.126-0.22l-0.056-0.119l0.034-0.223l-0.165-0.97l-0.073-0.271l-0.163-0.058l-0.979,0.172l-0.094-0.029
				c-0.013,0.001-0.013,0.026-0.035,0.071l-0.225,0.081l-0.034,0.11v0.253l0.067,0.39l0.124,0.257l0.017,0.314l0.104,0.532
				l0.032,0.311l0.108,0.284l0.034,0.317l0.126,0.303l0.034,0.313l0.14,0.371l0.199,0.961l0.09,0.229l0.215,0.992l0.237,0.85
				c0.037,0.144,0.055,0.255,0.055,0.275c0,0.045-0.018,0.109-0.055,0.199l-0.126,0.31l0.069,0.234l-0.181,0.246l-0.016,0.081
				l0.036,0.217l-0.054,0.215l-0.095,0.089l-0.086,0.37l-0.075,0.237l-0.161,0.876l-0.303,1.044l-0.068-0.002
				c0.019-0.022,0.019-0.037,0.019-0.037l-0.102-0.281c0,0,0.012-0.023,0.03-0.044l-0.104-0.254l-0.142-0.631l-0.104-0.32
				l-0.085-0.355l-0.21-0.773l-0.066-0.291l-0.117-0.308l-0.021-0.253l-0.051-0.06v-0.146l-0.069-0.374l-0.202-0.653l-0.085-0.307
				v-0.205l-0.084-0.288l-0.052-0.201l-0.014-0.206l-0.067-0.182l-0.201-0.992l-0.147-0.499l0.032-0.043l-0.049-0.323l-0.085-0.3
				l-0.016-0.203l0.034-0.087l-0.084-0.091l-0.082-0.541l-0.114-0.164l-0.166-0.978L41.031,13.801z"/>
		</g>
	</g>
</g>
</svg>
